HIERARCHY
ROOT Root
{
  OFFSET 0.0 0.0 0.0
  CHANNELS 6 Xposition Yposition Zposition Zrotation Yrotation Xrotation
  JOINT Hips
  {
    OFFSET 0.0 100.0 0.0
    CHANNELS 6 Xposition Yposition Zposition Zrotation Yrotation Xrotation
    JOINT Spine1
    {
      OFFSET 5.003913 -0.037094 -0.013727
      CHANNELS 3 Zrotation Yrotation Xrotation
      JOINT Spine2
      {
        OFFSET 7.125363 -1e-06 0.0
        CHANNELS 3 Zrotation Yrotation Xrotation
        JOINT Chest
        {
          OFFSET 7.594027 1e-06 0.0
          CHANNELS 3 Zrotation Yrotation Xrotation
          JOINT Neck1
          {
            OFFSET 26.313086 -0.460272 -0.181672
            CHANNELS 3 Zrotation Yrotation Xrotation
            JOINT Neck2
            {
              OFFSET 8.045911 0.0 0.0
              CHANNELS 3 Zrotation Yrotation Xrotation
              JOINT Head
              {
                OFFSET 6.432774 0.0 0.0
                CHANNELS 3 Zrotation Yrotation Xrotation
                JOINT HeadEnd
                {
                  OFFSET 16.169773 0.06451 0.00362
                  CHANNELS 3 Zrotation Yrotation Xrotation
                }
                JOINT Jaw
                {
                  OFFSET 0.108741 3.12938 0.002639
                  CHANNELS 3 Zrotation Yrotation Xrotation
                }
                JOINT LeftEye
                {
                  OFFSET 4.45173 8.166359 3.206392
                  CHANNELS 3 Zrotation Yrotation Xrotation
                }
                JOINT RightEye
                {
                  OFFSET 4.436895 8.135758 -3.222429
                  CHANNELS 3 Zrotation Yrotation Xrotation
                }
              }
            }
          }
          JOINT LeftShoulder
          {
            OFFSET 23.218927 5.195579 1.621656
            CHANNELS 3 Zrotation Yrotation Xrotation
            JOINT LeftArm
            {
              OFFSET 15.902118 2e-06 -2e-06
              CHANNELS 3 Zrotation Yrotation Xrotation
              JOINT LeftForeArm
              {
                OFFSET 28.739307 0.0 -1e-06
                CHANNELS 3 Zrotation Yrotation Xrotation
                JOINT LeftHand
                {
                  OFFSET 27.093981 -4e-06 0.0
                  CHANNELS 3 Zrotation Yrotation Xrotation
                  JOINT LeftHandThumb1
                  {
                    OFFSET 2.276781 3.380274 0.83384
                    CHANNELS 3 Zrotation Yrotation Xrotation
                    JOINT LeftHandThumb2
                    {
                      OFFSET 4.705309 -1e-06 -1e-06
                      CHANNELS 3 Zrotation Yrotation Xrotation
                      JOINT LeftHandThumb3
                      {
                        OFFSET 2.798515 0.0 3e-06
                        CHANNELS 3 Zrotation Yrotation Xrotation
                        JOINT LeftHandThumbEnd
                        {
                          OFFSET 3.180793 4e-06 -4e-06
                          CHANNELS 3 Zrotation Yrotation Xrotation
                        }
                      }
                    }
                  }
                  JOINT LeftHandIndex1
                  {
                    OFFSET 3.247786 2.352677 0.137192
                    CHANNELS 3 Zrotation Yrotation Xrotation
                    JOINT LeftHandIndex2
                    {
                      OFFSET 6.367095 1e-06 0.0
                      CHANNELS 3 Zrotation Yrotation Xrotation
                      JOINT LeftHandIndex3
                      {
                        OFFSET 3.662364 0.0 0.0
                        CHANNELS 3 Zrotation Yrotation Xrotation
                        JOINT LeftHandIndex4
                        {
                          OFFSET 2.329242 4e-06 -4e-06
                          CHANNELS 3 Zrotation Yrotation Xrotation
                          JOINT LeftHandIndexEnd
                          {
                            OFFSET 2.767823 1e-06 0.0
                            CHANNELS 3 Zrotation Yrotation Xrotation
                          }
                        }
                      }
                    }
                  }
                  JOINT LeftHandMiddle1
                  {
                    OFFSET 3.163612 0.945023 -0.406112
                    CHANNELS 3 Zrotation Yrotation Xrotation
                    JOINT LeftHandMiddle2
                    {
                      OFFSET 6.276789 3e-06 0.0
                      CHANNELS 3 Zrotation Yrotation Xrotation
                      JOINT LeftHandMiddle3
                      {
                        OFFSET 4.35652 -1e-06 4e-06
                        CHANNELS 3 Zrotation Yrotation Xrotation
                        JOINT LeftHandMiddle4
                        {
                          OFFSET 2.996877 0.0 8e-06
                          CHANNELS 3 Zrotation Yrotation Xrotation
                          JOINT LeftHandMiddleEnd
                          {
                            OFFSET 2.323256 3e-06 -4e-06
                            CHANNELS 3 Zrotation Yrotation Xrotation
                          }
                        }
                      }
                    }
                  }
                  JOINT LeftHandRing1
                  {
                    OFFSET 2.882606 -0.309162 0.107445
                    CHANNELS 3 Zrotation Yrotation Xrotation
                    JOINT LeftHandRing2
                    {
                      OFFSET 6.033198 0.0 4e-06
                      CHANNELS 3 Zrotation Yrotation Xrotation
                      JOINT LeftHandRing3
                      {
                        OFFSET 4.350578 3e-06 0.0
                        CHANNELS 3 Zrotation Yrotation Xrotation
                        JOINT LeftHandRing4
                        {
                          OFFSET 2.651321 2e-06 -7e-06
                          CHANNELS 3 Zrotation Yrotation Xrotation
                          JOINT LeftHandRingEnd
                          {
                            OFFSET 1.937663 1e-06 -4e-06
                            CHANNELS 3 Zrotation Yrotation Xrotation
                          }
                        }
                      }
                    }
                  }
                  JOINT LeftHandPinky1
                  {
                    OFFSET 2.865315 -1.525436 0.575687
                    CHANNELS 3 Zrotation Yrotation Xrotation
                    JOINT LeftHandPinky2
                    {
                      OFFSET 5.54936 1e-06 -8e-06
                      CHANNELS 3 Zrotation Yrotation Xrotation
                      JOINT LeftHandPinky3
                      {
                        OFFSET 3.070974 0.0 -4e-06
                        CHANNELS 3 Zrotation Yrotation Xrotation
                        JOINT LeftHandPinky4
                        {
                          OFFSET 1.549672 1e-06 0.0
                          CHANNELS 3 Zrotation Yrotation Xrotation
                          JOINT LeftHandPinkyEnd
                          {
                            OFFSET 1.952123 0.0 0.0
                            CHANNELS 3 Zrotation Yrotation Xrotation
                          }
                        }
                      }
                    }
                  }
                }
              }
            }
          }
          JOINT RightShoulder
          {
            OFFSET 23.161716 5.296122 -1.380114
            CHANNELS 3 Zrotation Yrotation Xrotation
            JOINT RightArm
            {
              OFFSET -16.027195 -2e-06 1.1e-05
              CHANNELS 3 Zrotation Yrotation Xrotation
              JOINT RightForeArm
              {
                OFFSET -28.736639 4e-06 2e-06
                CHANNELS 3 Zrotation Yrotation Xrotation
                JOINT RightHand
                {
                  OFFSET -27.133619 6e-06 0.0
                  CHANNELS 3 Zrotation Yrotation Xrotation
                  JOINT RightHandThumb1
                  {
                    OFFSET -2.274328 -3.351035 -0.83067
                    CHANNELS 3 Zrotation Yrotation Xrotation
                    JOINT RightHandThumb2
                    {
                      OFFSET -4.703594 -3e-06 2e-06
                      CHANNELS 3 Zrotation Yrotation Xrotation
                      JOINT RightHandThumb3
                      {
                        OFFSET -2.794935 -4e-06 -3e-06
                        CHANNELS 3 Zrotation Yrotation Xrotation
                        JOINT RightHandThumbEnd
                        {
                          OFFSET -3.183852 4e-06 1e-06
                          CHANNELS 3 Zrotation Yrotation Xrotation
                        }
                      }
                    }
                  }
                  JOINT RightHandIndex1
                  {
                    OFFSET -3.253496 -2.33755 -0.127667
                    CHANNELS 3 Zrotation Yrotation Xrotation
                    JOINT RightHandIndex2
                    {
                      OFFSET -6.344434 0.0 0.0
                      CHANNELS 3 Zrotation Yrotation Xrotation
                      JOINT RightHandIndex3
                      {
                        OFFSET -3.654871 0.0 -8e-06
                        CHANNELS 3 Zrotation Yrotation Xrotation
                        JOINT RightHandIndex4
                        {
                          OFFSET -2.327586 -1e-06 0.0
                          CHANNELS 3 Zrotation Yrotation Xrotation
                          JOINT RightHandIndexEnd
                          {
                            OFFSET -2.770001 3e-06 8e-06
                            CHANNELS 3 Zrotation Yrotation Xrotation
                          }
                        }
                      }
                    }
                  }
                  JOINT RightHandMiddle1
                  {
                    OFFSET -3.168223 -0.944764 0.411762
                    CHANNELS 3 Zrotation Yrotation Xrotation
                    JOINT RightHandMiddle2
                    {
                      OFFSET -6.266691 -1e-06 -4e-06
                      CHANNELS 3 Zrotation Yrotation Xrotation
                      JOINT RightHandMiddle3
                      {
                        OFFSET -4.348901 0.0 0.0
                        CHANNELS 3 Zrotation Yrotation Xrotation
                        JOINT RightHandMiddle4
                        {
                          OFFSET -3.00024 2e-06 -4e-06
                          CHANNELS 3 Zrotation Yrotation Xrotation
                          JOINT RightHandMiddleEnd
                          {
                            OFFSET -2.321477 -4e-06 -4e-06
                            CHANNELS 3 Zrotation Yrotation Xrotation
                          }
                        }
                      }
                    }
                  }
                  JOINT RightHandRing1
                  {
                    OFFSET -2.885654 0.293261 -0.119232
                    CHANNELS 3 Zrotation Yrotation Xrotation
                    JOINT RightHandRing2
                    {
                      OFFSET -6.032835 -1e-06 -4e-06
                      CHANNELS 3 Zrotation Yrotation Xrotation
                      JOINT RightHandRing3
                      {
                        OFFSET -4.33881 0.0 -4e-06
                        CHANNELS 3 Zrotation Yrotation Xrotation
                        JOINT RightHandRing4
                        {
                          OFFSET -2.654903 -4e-06 -4e-06
                          CHANNELS 3 Zrotation Yrotation Xrotation
                          JOINT RightHandRingEnd
                          {
                            OFFSET -1.935122 0.0 4e-06
                            CHANNELS 3 Zrotation Yrotation Xrotation
                          }
                        }
                      }
                    }
                  }
                  JOINT RightHandPinky1
                  {
                    OFFSET -2.866241 1.503904 -0.60527
                    CHANNELS 3 Zrotation Yrotation Xrotation
                    JOINT RightHandPinky2
                    {
                      OFFSET -5.553177 -2e-06 0.0
                      CHANNELS 3 Zrotation Yrotation Xrotation
                      JOINT RightHandPinky3
                      {
                        OFFSET -3.062664 -1e-06 -4e-06
                        CHANNELS 3 Zrotation Yrotation Xrotation
                        JOINT RightHandPinky4
                        {
                          OFFSET -1.546529 2e-06 4e-06
                          CHANNELS 3 Zrotation Yrotation Xrotation
                          JOINT RightHandPinkyEnd
                          {
                            OFFSET -1.952341 0.0 -4e-06
                            CHANNELS 3 Zrotation Yrotation Xrotation
                          }
                        }
                      }
                    }
                  }
                }
              }
            }
          }
        }
      }
    }
    JOINT LeftLeg
    {
      OFFSET -8.443107 2.567604 10.043214
      CHANNELS 3 Zrotation Yrotation Xrotation
      JOINT LeftShin
      {
        OFFSET 43.229198 1e-06 -1e-06
        CHANNELS 3 Zrotation Yrotation Xrotation
        JOINT LeftFoot
        {
          OFFSET 42.298611 1e-06 1e-06
          CHANNELS 3 Zrotation Yrotation Xrotation
          JOINT LeftToeBase
          {
            OFFSET 14.165858 1e-06 0.0
            CHANNELS 3 Zrotation Yrotation Xrotation
            JOINT LeftToeEnd
            {
              OFFSET 6.7141 -0.234461 0.0
              CHANNELS 3 Zrotation Yrotation Xrotation
            }
          }
        }
      }
    }
    JOINT RightLeg
    {
      OFFSET -8.303923 2.592729 -10.047278
      CHANNELS 3 Zrotation Yrotation Xrotation
      JOINT RightShin
      {
        OFFSET -43.369682 0.0 1e-06
        CHANNELS 3 Zrotation Yrotation Xrotation
        JOINT RightFoot
        {
          OFFSET -42.260784 4e-06 2e-06
          CHANNELS 3 Zrotation Yrotation Xrotation
          JOINT RightToeBase
          {
            OFFSET -14.222245 -2e-06 -1e-06
            CHANNELS 3 Zrotation Yrotation Xrotation
            JOINT RightToeEnd
            {
              OFFSET -6.660062 0.232574 -2e-06
              CHANNELS 3 Zrotation Yrotation Xrotation
            }
          }
        }
      }
    }
  }
}
MOTION
Frames: 4
Frame Time: 0.03333333333333333
0.0 0.0 0.0 0.0 -0.0 0.0 1.72988 99.728737 0.381471 90.923615 0.983954 89.926842 -0.647397 -1.149756 0.101145 -11.170487 -0.586558 0.441873 16.550135 -0.017174 -1.590393 18.076363 1.204591 2.847067 -2.443554 -0.658381 1.643473 -31.825014 1.410874 0.238258 6e-06 -0.0 -0.0 0.022257 0.011695 -0.008877 0.062583 0.021219 -0.01118 0.071382 0.000651 -0.001231 -134.471268 -75.337059 151.248535 38.065605 -54.557129 24.123177 27.678135 -0.027177 -0.012777 0.133577 11.159359 -2.044057 17.636627 -26.322725 52.411179 -19.466665 -14.395597 29.410381 -0.0 -8.774822 -1e-06 15.812899 -18.153973 6.272274 -0.609778 -1.795653 -3.889326 -4.807088 -11.046809 -2.93785 4e-06 -20.976015 -3e-06 -5.019972 -25.033556 -4.031878 6e-06 -1e-06 -0.0 -10.634533 -5.686969 -3.565585 10.573275 -17.922953 -3.1139 3e-06 -13.821209 -2e-06 -0.501776 -31.181507 -4.027016 -11.731138 -59.638481 7.444993 -13.982711 -7.150198 -2.875039 13.772728 -8.401493 -3.21824 0.347737 -34.211555 0.771653 -0.963028 -17.73337 2.621021 -0.0 1e-06 0.0 -17.346418 -20.095217 -4.201779 21.757557 -1.638375 3.866424 2e-06 -6.338822 -1e-06 -1.697588 -22.591743 -6.194005 1e-06 -5e-06 -2e-06 22.168707 -79.143646 173.929062 29.254383 -57.52322 21.524843 32.739788 0.011675 -0.090848 -2.564942 10.225014 -14.070025 22.18211 -20.375891 49.933319 -16.701813 -16.743528 28.476528 -3e-06 -12.6906 -2e-06 16.168062 -17.574556 2.667982 -0.105919 -1.513856 -4.27588 -5.03904 -5.612872 -2.953555 4e-06 -11.020523 -3e-06 -6.111297 -15.89533 -3.840471 0.0 -0.0 1e-06 -10.283369 -5.680288 -4.341836 11.028292 -11.302404 -2.372634 -1.384269 -14.23858 -6.320123 -0.625436 -26.924189 -3.827604 -4.147068 -49.336197 -3.76067 -13.708524 -7.363475 -3.720939 18.141146 -14.052736 -3.242674 6e-06 -18.787266 -1e-06 -0.429711 -8.456041 2.555501 -1e-06 1e-06 1e-06 -15.923534 -20.094482 -5.473586 30.41921 -7.190827 1.735927 1e-06 -8.162921 -3e-06 -1.861899 -22.861467 -6.167944 1e-06 -6e-06 -1e-06 179.950806 -4.51011 -3.761649 11.5955 -0.021919 0.064561 -79.255318 -1.663386 -8.73778 -4.957238 1.570912 2.147192 -0.999999 0.0 -0.0 2.227346 -10.246965 -11.841955 6.274275 0.017758 0.047591 -75.231094 3.282673 -10.919874 -4.933531 0.650698 1.655921 -1.000001 0.0 -0.0 
0.0 0.0 0.0 0.0 -0.0 0.0 1.751688 99.750862 0.346372 90.936081 0.977748 89.895889 -0.635628 -1.174904 0.101456 -11.156983 -0.56372 0.52902 16.55331 -0.020863 -1.654417 18.077772 1.239991 2.845083 -2.424376 -0.65288 1.601343 -31.885441 1.384349 0.285133 6e-06 -0.0 -0.0 0.024945 0.011827 0.008466 0.077665 0.023509 0.010225 0.083626 -0.001239 0.011974 -134.505737 -75.358688 151.363968 38.149494 -54.560158 23.823721 27.637278 -0.098094 -0.067484 0.24501 11.226882 -1.761828 17.636629 -26.322714 52.411171 -19.46666 -14.395594 29.410381 -0.0 -8.77482 -1e-06 15.790228 -18.113791 6.272011 -0.609777 -1.795653 -3.889327 -4.807088 -11.04681 -2.937852 5e-06 -20.976015 -3e-06 -5.019969 -25.03356 -4.03188 6e-06 -1e-06 0.0 -10.634534 -5.686971 -3.565585 10.573271 -17.922947 -3.113898 3e-06 -13.821205 -4e-06 -0.501775 -31.181501 -4.027011 -11.661151 -59.593708 7.449551 -13.982712 -7.150197 -2.875045 13.772727 -8.40149 -3.218239 0.347738 -34.211544 0.771649 -0.963029 -17.733368 2.621019 -2e-06 -0.0 -1e-06 -17.346416 -20.095217 -4.201782 21.757555 -1.638374 3.866424 3e-06 -6.338823 -1e-06 -1.69759 -22.591745 -6.194005 2e-06 -2e-06 -3e-06 22.358223 -79.147415 173.841324 29.516779 -57.47683 21.132973 32.640392 -0.051869 -0.112806 -2.495725 10.128345 -13.799301 22.18211 -20.375893 49.933308 -16.701809 -16.743526 28.476524 -4e-06 -12.6906 -0.0 16.165766 -17.550299 2.66167 -0.105918 -1.513855 -4.275879 -5.03904 -5.612871 -2.953555 5e-06 -11.020521 -4e-06 -6.111296 -15.89533 -3.840466 0.0 1e-06 1e-06 -10.283368 -5.680288 -4.341839 11.028289 -11.302406 -2.372627 -1.384269 -14.238579 -6.320118 -0.62544 -26.924187 -3.827599 -4.164719 -49.440369 -3.705883 -13.708521 -7.363474 -3.720936 18.141146 -14.052738 -3.242676 4e-06 -18.78727 1e-06 -0.429711 -8.456039 2.555502 -0.0 1e-06 1e-06 -15.923534 -20.094479 -5.473584 30.419205 -7.190825 1.735927 2e-06 -8.162922 -2e-06 -1.861902 -22.861467 -6.167939 -1e-06 -4e-06 -1e-06 -179.909088 -4.472216 -3.811291 11.262176 -0.013012 0.102091 -79.10022 -1.625364 -8.782816 -4.982842 1.58512 2.151734 -0.999997 0.0 -0.0 2.263969 -10.236543 -11.747993 6.162472 0.013013 0.052201 -75.114609 3.204222 -10.870926 -4.96211 0.648222 1.659904 -1.000002 -1e-06 -0.0 
0.0 0.0 0.0 0.0 -0.0 0.0 1.781908 99.752945 0.316908 90.968666 0.991414 89.884727 -0.627773 -1.202259 0.104035 -11.160436 -0.551359 0.570326 16.612965 -0.035883 -1.681686 18.098776 1.261495 2.858039 -2.451546 -0.646215 1.546746 -31.876972 1.346954 0.286072 7e-06 -0.0 -0.0 0.023854 0.010732 0.009494 0.067124 0.020435 0.013619 0.074439 -0.000541 0.010152 -134.524811 -75.392296 151.411484 38.137501 -54.560265 23.700134 27.649794 -0.1429 -0.09557 0.268815 11.231956 -1.697839 17.636633 -26.322735 52.411209 -19.46666 -14.395598 29.410389 -1e-06 -8.774821 -2e-06 15.788338 -18.119091 6.271396 -0.609776 -1.795652 -3.889327 -4.807086 -11.046807 -2.93785 8e-06 -20.976011 -3e-06 -5.019965 -25.033548 -4.03188 6e-06 0.0 2e-06 -10.634533 -5.686967 -3.565584 10.573277 -17.922947 -3.113902 3e-06 -13.821206 -0.0 -0.501774 -31.181498 -4.027014 -11.665912 -59.539776 7.440307 -13.982712 -7.150195 -2.875041 13.77273 -8.401489 -3.218243 0.347738 -34.21154 0.771653 -0.963026 -17.733366 2.621019 -2e-06 -1e-06 0.0 -17.346413 -20.095209 -4.201786 21.757557 -1.638377 3.866425 2e-06 -6.338821 -0.0 -1.697585 -22.591738 -6.194004 -2e-06 -4e-06 -2e-06 22.45051 -79.150536 173.834091 29.695505 -57.404625 20.819523 32.589153 -0.120218 -0.129081 -2.47949 10.115932 -13.690025 22.18211 -20.375896 49.933319 -16.701811 -16.743528 28.47653 -5e-06 -12.690598 0.0 16.16696 -17.517435 2.665923 -0.105919 -1.513856 -4.275882 -5.039039 -5.612869 -2.953555 5e-06 -11.02052 -2e-06 -6.111293 -15.895329 -3.840472 -0.0 1e-06 1e-06 -10.283367 -5.680288 -4.341839 11.028291 -11.302404 -2.372629 -1.384267 -14.238577 -6.32012 -0.625435 -26.924183 -3.827598 -4.174647 -49.482239 -3.687207 -13.708521 -7.363475 -3.720942 18.141146 -14.05274 -3.242673 6e-06 -18.78727 1e-06 -0.429709 -8.456043 2.555502 -1e-06 1e-06 2e-06 -15.92353 -20.094479 -5.473583 30.419205 -7.190827 1.735925 2e-06 -8.162925 -1e-06 -1.8619 -22.861464 -6.167939 -1e-06 -5e-06 -0.0 -179.882553 -4.413479 -3.824504 11.203345 -0.014368 0.128381 -79.06575 -1.599382 -8.775296 -4.954519 1.5894 2.156149 -1.0 -0.0 -0.0 2.246534 -10.294004 -11.701136 6.195984 0.009773 0.051388 -75.100174 3.146567 -10.866956 -4.93785 0.650285 1.662669 -1.000001 0.0 0.0 
0.0 0.0 0.0 0.0 -0.0 0.0 1.794114 99.749199 0.28671 91.00177 1.019526 89.892166 -0.622748 -1.232832 0.100441 -11.166634 -0.543397 0.581564 16.688305 -0.051748 -1.66666 18.156683 1.267425 2.857178 -2.489741 -0.641974 1.511989 -31.870226 1.318248 0.252368 7e-06 -0.0 -0.0 0.021675 0.009578 0.005535 0.05002 0.017994 0.011188 0.057781 -0.000497 0.004217 -134.509232 -75.419563 151.428024 38.151245 -54.533047 23.69504 27.678356 -0.135646 -0.09836 0.254486 11.247982 -1.647982 17.636633 -26.322741 52.411201 -19.466665 -14.395602 29.410398 0.0 -8.774824 -2e-06 15.771722 -18.118156 6.278142 -0.609777 -1.795656 -3.889325 -4.80709 -11.046813 -2.937852 3e-06 -20.976021 -3e-06 -5.019974 -25.033562 -4.031882 6e-06 -1e-06 -1e-06 -10.634537 -5.686973 -3.565587 10.573277 -17.922956 -3.113901 3e-06 -13.821212 -2e-06 -0.501775 -31.181511 -4.027013 -11.678127 -59.494644 7.42134 -13.982718 -7.150201 -2.875045 13.772733 -8.401493 -3.218239 0.347735 -34.211559 0.771653 -0.963029 -17.733376 2.62102 -1e-06 1e-06 1e-06 -17.346424 -20.095224 -4.20178 21.757565 -1.638375 3.866428 1e-06 -6.338825 2e-06 -1.69759 -22.591751 -6.194005 -1e-06 -3e-06 -1e-06 22.559458 -79.140015 173.764923 29.806126 -57.327015 20.746618 32.552166 -0.122215 -0.127607 -2.500235 10.078179 -13.697223 22.182121 -20.375896 49.933323 -16.701817 -16.74353 28.476532 -3e-06 -12.690604 1e-06 16.164003 -17.480516 2.67954 -0.105919 -1.513856 -4.275879 -5.039042 -5.612873 -2.953557 4e-06 -11.020526 -3e-06 -6.111301 -15.895334 -3.840469 -0.0 1e-06 -0.0 -10.283373 -5.68029 -4.341838 11.028296 -11.302406 -2.372633 -1.384272 -14.238584 -6.320121 -0.625441 -26.924194 -3.827602 -4.202844 -49.461189 -3.658382 -13.708527 -7.363479 -3.720939 18.141157 -14.052742 -3.242677 4e-06 -18.787271 0.0 -0.429713 -8.456045 2.555505 0.0 1e-06 0.0 -15.923539 -20.094492 -5.473584 30.419218 -7.190827 1.735927 1e-06 -8.162927 -1e-06 -1.861903 -22.861473 -6.167944 1e-06 -5e-06 -2e-06 -179.875839 -4.369198 -3.846853 11.208674 -0.01822 0.142411 -79.053932 -1.563491 -8.755511 -4.925116 1.582916 2.155506 -0.999999 -0.0 -0.0 2.232326 -10.359581 -11.679865 6.257442 0.00561 0.040617 -75.111031 3.114792 -10.891196 -4.912766 0.645024 1.662124 -1.0 -1e-06 0.0 
